{
	"asset":{
		"generator":"Khronos glTF Blender I/O v4.1.63",
		"version":"2.0"
	},
	"extensionsUsed":[
		"KHR_materials_specular",
		"KHR_materials_ior"
	],
	"scene":0,
	"scenes":[
		{
			"name":"Scene",
			"nodes":[
				4
			]
		}
	],
	"nodes":[
		{
			"mesh":0,
			"name":"bed_sheet",
			"scale":[
				1.395539402961731,
				7.647524356842041,
				0.8152684569358826
			]
		},
		{
			"mesh":1,
			"name":"mattress",
			"scale":[
				0.9957301616668701,
				1.9687635898590088,
				0.9535518288612366
			]
		},
		{
			"mesh":2,
			"name":"pillow left",
			"scale":[
				0.5845372676849365,
				3.971008539199829,
				0.4946052134037018
			]
		},
		{
			"mesh":3,
			"name":"pillow right",
			"scale":[
				0.5845372676849365,
				3.971008539199829,
				0.4946052134037018
			]
		},
		{
			"children":[
				0,
				1,
				2,
				3
			],
			"mesh":4,
			"name":"bed _frame",
			"scale":[
				1.153669834136963,
				0.1698216050863266,
				1.3634370565414429
			]
		}
	],
	"materials":[
		{
			"doubleSided":true,
			"extensions":{
				"KHR_materials_specular":{
					"specularFactor":0.6893203854560852
				},
				"KHR_materials_ior":{
					"ior":1.4500000476837158
				}
			},
			"name":"blue cloth",
			"normalTexture":{
				"index":0,
				"scale":0.5
			},
			"pbrMetallicRoughness":{
				"baseColorTexture":{
					"index":1
				},
				"metallicFactor":0.04545453190803528,
				"metallicRoughnessTexture":{
					"index":2
				}
			}
		},
		{
			"doubleSided":true,
			"name":"Mettress & pillow",
			"pbrMetallicRoughness":{
				"baseColorTexture":{
					"index":3
				},
				"metallicFactor":0,
				"metallicRoughnessTexture":{
					"index":4
				}
			}
		},
		{
			"doubleSided":true,
			"name":"wood",
			"pbrMetallicRoughness":{
				"baseColorTexture":{
					"index":5
				},
				"metallicFactor":0,
				"metallicRoughnessTexture":{
					"index":6
				}
			}
		}
	],
	"meshes":[
		{
			"name":"Plane",
			"primitives":[
				{
					"attributes":{
						"POSITION":0,
						"NORMAL":1,
						"TEXCOORD_0":2
					},
					"indices":3,
					"material":0
				}
			]
		},
		{
			"name":"Cube.001",
			"primitives":[
				{
					"attributes":{
						"POSITION":4,
						"NORMAL":5,
						"TEXCOORD_0":6
					},
					"indices":7,
					"material":1
				}
			]
		},
		{
			"name":"Cube.002",
			"primitives":[
				{
					"attributes":{
						"POSITION":8,
						"NORMAL":9,
						"TEXCOORD_0":10
					},
					"indices":11,
					"material":1
				}
			]
		},
		{
			"name":"Cube.003",
			"primitives":[
				{
					"attributes":{
						"POSITION":12,
						"NORMAL":13,
						"TEXCOORD_0":14
					},
					"indices":11,
					"material":1
				}
			]
		},
		{
			"name":"Cube",
			"primitives":[
				{
					"attributes":{
						"POSITION":15,
						"NORMAL":16,
						"TEXCOORD_0":17
					},
					"indices":18,
					"material":2
				}
			]
		}
	],
	"textures":[
		{
			"sampler":0,
			"source":0
		},
		{
			"sampler":0,
			"source":1
		},
		{
			"sampler":0,
			"source":2
		},
		{
			"sampler":0,
			"source":3
		},
		{
			"sampler":0,
			"source":4
		},
		{
			"sampler":0,
			"source":5
		},
		{
			"sampler":0,
			"source":4
		}
	],
	"images":[
		{
			"mimeType":"image/jpeg",
			"name":"Fabric030_1K_NormalGL",
			"uri":"Fabric030_1K_NormalGL.jpg"
		},
		{
			"mimeType":"image/jpeg",
			"name":"Fabric030_1K_Color",
			"uri":"Fabric030_1K_Color.jpg"
		},
		{
			"mimeType":"image/png",
			"name":"Fabric030_1K_Roughness",
			"uri":"Fabric030_1K_Roughness.png"
		},
		{
			"mimeType":"image/jpeg",
			"name":"Fabric019_1K_Color",
			"uri":"Fabric019_1K_Color.jpg"
		},
		{
			"mimeType":"image/png",
			"name":"Image",
			"uri":"Image.png"
		},
		{
			"mimeType":"image/jpeg",
			"name":"Wood048_4K_Color",
			"uri":"Wood048_4K_Color.jpg"
		}
	],
	"accessors":[
		{
			"bufferView":0,
			"componentType":5126,
			"count":831819,
			"max":[
				0.8055511116981506,
				0.583061695098877,
				1.333739995956421
			],
			"min":[
				-0.7998847961425781,
				0.0680762529373169,
				-0.8724855184555054
			],
			"type":"VEC3"
		},
		{
			"bufferView":1,
			"componentType":5126,
			"count":831819,
			"type":"VEC3"
		},
		{
			"bufferView":2,
			"componentType":5126,
			"count":831819,
			"type":"VEC2"
		},
		{
			"bufferView":3,
			"componentType":5125,
			"count":3992592,
			"type":"SCALAR"
		},
		{
			"bufferView":4,
			"componentType":5126,
			"count":4398,
			"max":[
				1.0513571500778198,
				2.1565496921539307,
				1.0834678411483765
			],
			"min":[
				-1.0242716073989868,
				0.6802332401275635,
				-0.961542010307312
			],
			"type":"VEC3"
		},
		{
			"bufferView":5,
			"componentType":5126,
			"count":4398,
			"type":"VEC3"
		},
		{
			"bufferView":6,
			"componentType":5126,
			"count":4398,
			"type":"VEC2"
		},
		{
			"bufferView":7,
			"componentType":5123,
			"count":24336,
			"type":"SCALAR"
		},
		{
			"bufferView":8,
			"componentType":5126,
			"count":17172,
			"max":[
				-0.07702137529850006,
				1.7401773929595947,
				-1.4466187953948975
			],
			"min":[
				-1.3209608793258667,
				1.0133041143417358,
				-1.872498869895935
			],
			"type":"VEC3"
		},
		{
			"bufferView":9,
			"componentType":5126,
			"count":17172,
			"type":"VEC3"
		},
		{
			"bufferView":10,
			"componentType":5126,
			"count":17172,
			"type":"VEC2"
		},
		{
			"bufferView":11,
			"componentType":5123,
			"count":97344,
			"type":"SCALAR"
		},
		{
			"bufferView":12,
			"componentType":5126,
			"count":17172,
			"max":[
				1.4277141094207764,
				1.7401777505874634,
				-1.4466187953948975
			],
			"min":[
				0.18377450108528137,
				1.0133041143417358,
				-1.872498631477356
			],
			"type":"VEC3"
		},
		{
			"bufferView":13,
			"componentType":5126,
			"count":17172,
			"type":"VEC3"
		},
		{
			"bufferView":14,
			"componentType":5126,
			"count":17172,
			"type":"VEC2"
		},
		{
			"bufferView":15,
			"componentType":5126,
			"count":3150,
			"max":[
				1.0156075954437256,
				7.56868839263916,
				1.0000001192092896
			],
			"min":[
				-0.9843925833702087,
				0.02297091670334339,
				-1.0000001192092896
			],
			"type":"VEC3"
		},
		{
			"bufferView":16,
			"componentType":5126,
			"count":3150,
			"type":"VEC3"
		},
		{
			"bufferView":17,
			"componentType":5126,
			"count":3150,
			"type":"VEC2"
		},
		{
			"bufferView":18,
			"componentType":5123,
			"count":15282,
			"type":"SCALAR"
		}
	],
	"bufferViews":[
		{
			"buffer":0,
			"byteLength":9981828,
			"byteOffset":0,
			"target":34962
		},
		{
			"buffer":0,
			"byteLength":9981828,
			"byteOffset":9981828,
			"target":34962
		},
		{
			"buffer":0,
			"byteLength":6654552,
			"byteOffset":19963656,
			"target":34962
		},
		{
			"buffer":0,
			"byteLength":15970368,
			"byteOffset":26618208,
			"target":34963
		},
		{
			"buffer":0,
			"byteLength":52776,
			"byteOffset":42588576,
			"target":34962
		},
		{
			"buffer":0,
			"byteLength":52776,
			"byteOffset":42641352,
			"target":34962
		},
		{
			"buffer":0,
			"byteLength":35184,
			"byteOffset":42694128,
			"target":34962
		},
		{
			"buffer":0,
			"byteLength":48672,
			"byteOffset":42729312,
			"target":34963
		},
		{
			"buffer":0,
			"byteLength":206064,
			"byteOffset":42777984,
			"target":34962
		},
		{
			"buffer":0,
			"byteLength":206064,
			"byteOffset":42984048,
			"target":34962
		},
		{
			"buffer":0,
			"byteLength":137376,
			"byteOffset":43190112,
			"target":34962
		},
		{
			"buffer":0,
			"byteLength":194688,
			"byteOffset":43327488,
			"target":34963
		},
		{
			"buffer":0,
			"byteLength":206064,
			"byteOffset":43522176,
			"target":34962
		},
		{
			"buffer":0,
			"byteLength":206064,
			"byteOffset":43728240,
			"target":34962
		},
		{
			"buffer":0,
			"byteLength":137376,
			"byteOffset":43934304,
			"target":34962
		},
		{
			"buffer":0,
			"byteLength":37800,
			"byteOffset":44071680,
			"target":34962
		},
		{
			"buffer":0,
			"byteLength":37800,
			"byteOffset":44109480,
			"target":34962
		},
		{
			"buffer":0,
			"byteLength":25200,
			"byteOffset":44147280,
			"target":34962
		},
		{
			"buffer":0,
			"byteLength":30564,
			"byteOffset":44172480,
			"target":34963
		}
	],
	"samplers":[
		{
			"magFilter":9729,
			"minFilter":9987
		}
	],
	"buffers":[
		{
			"byteLength":44203044,
			"uri":"Double-bed.bin"
		}
	]
}
